<mxfile host="app.diagrams.net" modified="2022-01-10T13:15:47.888Z" agent="5.0 (Windows NT 10.0; Win64; x64) AppleWebKit/537.36 (KHTML, like Gecko) Chrome/96.0.4664.110 Safari/537.36" etag="_pQe30QqNmdIoTy9D6N4" version="16.2.4" type="github">
  <diagram id="Ybvla86FJAiDTcOJxf7-" name="Page-1">
    <mxGraphModel dx="1808" dy="325" grid="1" gridSize="10" guides="1" tooltips="1" connect="1" arrows="1" fold="1" page="1" pageScale="1" pageWidth="827" pageHeight="1169" math="0" shadow="0">
      <root>
        <mxCell id="0" />
        <mxCell id="1" parent="0" />
        <mxCell id="JA2z67xEsf-Lq8oUfWYJ-3" style="edgeStyle=orthogonalEdgeStyle;rounded=0;orthogonalLoop=1;jettySize=auto;html=1;exitX=1;exitY=0.5;exitDx=0;exitDy=0;entryX=0;entryY=0.5;entryDx=0;entryDy=0;" parent="1" source="JA2z67xEsf-Lq8oUfWYJ-1" target="JA2z67xEsf-Lq8oUfWYJ-2" edge="1">
          <mxGeometry relative="1" as="geometry" />
        </mxCell>
        <mxCell id="JA2z67xEsf-Lq8oUfWYJ-1" value="runc&lt;br&gt;tid=&lt;span&gt;48024&lt;/span&gt;&lt;div class=&quot;okr-block-clipboard&quot;&gt;&lt;/div&gt;" style="rounded=0;whiteSpace=wrap;html=1;" parent="1" vertex="1">
          <mxGeometry x="-790" y="500" width="120" height="60" as="geometry" />
        </mxCell>
        <mxCell id="JA2z67xEsf-Lq8oUfWYJ-10" style="edgeStyle=orthogonalEdgeStyle;rounded=0;orthogonalLoop=1;jettySize=auto;html=1;exitX=1;exitY=0.5;exitDx=0;exitDy=0;entryX=0;entryY=0.5;entryDx=0;entryDy=0;" parent="1" source="JA2z67xEsf-Lq8oUfWYJ-2" target="JA2z67xEsf-Lq8oUfWYJ-9" edge="1">
          <mxGeometry relative="1" as="geometry" />
        </mxCell>
        <mxCell id="JA2z67xEsf-Lq8oUfWYJ-2" value="runc init&lt;br&gt;tid=&lt;span&gt;48026&lt;/span&gt;&lt;div class=&quot;okr-block-clipboard&quot;&gt;&lt;/div&gt;" style="rounded=0;whiteSpace=wrap;html=1;" parent="1" vertex="1">
          <mxGeometry x="-580" y="500" width="120" height="60" as="geometry" />
        </mxCell>
        <mxCell id="JA2z67xEsf-Lq8oUfWYJ-4" value="4. fork" style="text;html=1;strokeColor=none;fillColor=none;align=center;verticalAlign=middle;whiteSpace=wrap;rounded=0;" parent="1" vertex="1">
          <mxGeometry x="-660" y="500" width="60" height="30" as="geometry" />
        </mxCell>
        <mxCell id="JA2z67xEsf-Lq8oUfWYJ-16" style="edgeStyle=orthogonalEdgeStyle;rounded=0;orthogonalLoop=1;jettySize=auto;html=1;exitX=0.5;exitY=1;exitDx=0;exitDy=0;entryX=0.5;entryY=0;entryDx=0;entryDy=0;" parent="1" source="JA2z67xEsf-Lq8oUfWYJ-5" target="JA2z67xEsf-Lq8oUfWYJ-6" edge="1">
          <mxGeometry relative="1" as="geometry" />
        </mxCell>
        <mxCell id="JA2z67xEsf-Lq8oUfWYJ-5" value="&lt;div class=&quot;okr-block-clipboard&quot;&gt;&lt;/div&gt;&lt;div&gt; runc:[0:PARENT]&lt;/div&gt;&lt;div&gt;runc:[1:CHILD]&lt;br&gt;&lt;/div&gt;tid=48029&lt;br&gt;vtid=0" style="rounded=0;whiteSpace=wrap;html=1;" parent="1" vertex="1">
          <mxGeometry x="-180" y="500" width="120" height="60" as="geometry" />
        </mxCell>
        <mxCell id="JA2z67xEsf-Lq8oUfWYJ-19" style="edgeStyle=orthogonalEdgeStyle;rounded=0;orthogonalLoop=1;jettySize=auto;html=1;exitX=0;exitY=0.5;exitDx=0;exitDy=0;entryX=1;entryY=0.5;entryDx=0;entryDy=0;" parent="1" source="JA2z67xEsf-Lq8oUfWYJ-6" target="JA2z67xEsf-Lq8oUfWYJ-18" edge="1">
          <mxGeometry relative="1" as="geometry" />
        </mxCell>
        <mxCell id="JA2z67xEsf-Lq8oUfWYJ-35" style="edgeStyle=orthogonalEdgeStyle;rounded=0;orthogonalLoop=1;jettySize=auto;html=1;exitX=0.5;exitY=1;exitDx=0;exitDy=0;entryX=0.5;entryY=0;entryDx=0;entryDy=0;" parent="1" source="JA2z67xEsf-Lq8oUfWYJ-6" target="JA2z67xEsf-Lq8oUfWYJ-34" edge="1">
          <mxGeometry relative="1" as="geometry" />
        </mxCell>
        <mxCell id="JA2z67xEsf-Lq8oUfWYJ-42" style="edgeStyle=orthogonalEdgeStyle;rounded=0;orthogonalLoop=1;jettySize=auto;html=1;exitX=0;exitY=0.5;exitDx=0;exitDy=0;entryX=1;entryY=0.5;entryDx=0;entryDy=0;" parent="1" source="JA2z67xEsf-Lq8oUfWYJ-6" target="JA2z67xEsf-Lq8oUfWYJ-21" edge="1">
          <mxGeometry relative="1" as="geometry" />
        </mxCell>
        <mxCell id="JA2z67xEsf-Lq8oUfWYJ-43" style="edgeStyle=orthogonalEdgeStyle;rounded=0;orthogonalLoop=1;jettySize=auto;html=1;exitX=0;exitY=0.5;exitDx=0;exitDy=0;entryX=1;entryY=0.5;entryDx=0;entryDy=0;" parent="1" source="JA2z67xEsf-Lq8oUfWYJ-6" target="JA2z67xEsf-Lq8oUfWYJ-22" edge="1">
          <mxGeometry relative="1" as="geometry" />
        </mxCell>
        <mxCell id="JA2z67xEsf-Lq8oUfWYJ-46" style="edgeStyle=orthogonalEdgeStyle;rounded=0;orthogonalLoop=1;jettySize=auto;html=1;exitX=0;exitY=0.5;exitDx=0;exitDy=0;entryX=1;entryY=0.5;entryDx=0;entryDy=0;" parent="1" source="JA2z67xEsf-Lq8oUfWYJ-6" target="JA2z67xEsf-Lq8oUfWYJ-25" edge="1">
          <mxGeometry relative="1" as="geometry" />
        </mxCell>
        <mxCell id="JA2z67xEsf-Lq8oUfWYJ-6" value="&lt;div class=&quot;okr-block-clipboard&quot;&gt;&lt;/div&gt;&lt;div&gt;&lt;div class=&quot;okr-block-clipboard&quot;&gt;&lt;/div&gt;&lt;div&gt;runc:[2:INIT]&lt;/div&gt;&lt;/div&gt;tid=&lt;span&gt;48030&lt;br&gt;vtid=1&lt;br&gt;&lt;b&gt;&lt;i&gt;10. call pivot_root&lt;/i&gt;&lt;/b&gt;&lt;br&gt;&lt;/span&gt;&lt;div class=&quot;okr-block-clipboard&quot;&gt;&lt;/div&gt;" style="rounded=0;whiteSpace=wrap;html=1;" parent="1" vertex="1">
          <mxGeometry x="-180" y="620" width="120" height="60" as="geometry" />
        </mxCell>
        <mxCell id="JA2z67xEsf-Lq8oUfWYJ-12" style="edgeStyle=orthogonalEdgeStyle;rounded=0;orthogonalLoop=1;jettySize=auto;html=1;exitX=1;exitY=0.5;exitDx=0;exitDy=0;entryX=0;entryY=0.5;entryDx=0;entryDy=0;" parent="1" source="JA2z67xEsf-Lq8oUfWYJ-8" target="JA2z67xEsf-Lq8oUfWYJ-1" edge="1">
          <mxGeometry relative="1" as="geometry" />
        </mxCell>
        <mxCell id="JA2z67xEsf-Lq8oUfWYJ-8" value="runc&lt;br&gt;tid=48020" style="rounded=0;whiteSpace=wrap;html=1;" parent="1" vertex="1">
          <mxGeometry x="-980" y="500" width="120" height="60" as="geometry" />
        </mxCell>
        <mxCell id="JA2z67xEsf-Lq8oUfWYJ-14" style="edgeStyle=orthogonalEdgeStyle;rounded=0;orthogonalLoop=1;jettySize=auto;html=1;exitX=1;exitY=0.5;exitDx=0;exitDy=0;entryX=0;entryY=0.5;entryDx=0;entryDy=0;" parent="1" source="JA2z67xEsf-Lq8oUfWYJ-9" target="JA2z67xEsf-Lq8oUfWYJ-5" edge="1">
          <mxGeometry relative="1" as="geometry" />
        </mxCell>
        <mxCell id="JA2z67xEsf-Lq8oUfWYJ-9" value="runc:[0:PARENT]&lt;br&gt;/proc/self/exe&lt;br&gt;tid=48026" style="rounded=0;whiteSpace=wrap;html=1;" parent="1" vertex="1">
          <mxGeometry x="-380" y="500" width="120" height="60" as="geometry" />
        </mxCell>
        <mxCell id="JA2z67xEsf-Lq8oUfWYJ-11" value="5. exec" style="text;html=1;strokeColor=none;fillColor=none;align=center;verticalAlign=middle;whiteSpace=wrap;rounded=0;" parent="1" vertex="1">
          <mxGeometry x="-450" y="500" width="60" height="30" as="geometry" />
        </mxCell>
        <mxCell id="JA2z67xEsf-Lq8oUfWYJ-13" value="3. clone" style="text;html=1;strokeColor=none;fillColor=none;align=center;verticalAlign=middle;whiteSpace=wrap;rounded=0;" parent="1" vertex="1">
          <mxGeometry x="-860" y="500" width="60" height="30" as="geometry" />
        </mxCell>
        <mxCell id="JA2z67xEsf-Lq8oUfWYJ-15" value="6. fork" style="text;html=1;strokeColor=none;fillColor=none;align=center;verticalAlign=middle;whiteSpace=wrap;rounded=0;" parent="1" vertex="1">
          <mxGeometry x="-250" y="500" width="60" height="30" as="geometry" />
        </mxCell>
        <mxCell id="JA2z67xEsf-Lq8oUfWYJ-17" value="7. fork" style="text;html=1;strokeColor=none;fillColor=none;align=center;verticalAlign=middle;whiteSpace=wrap;rounded=0;" parent="1" vertex="1">
          <mxGeometry x="-120" y="570" width="60" height="30" as="geometry" />
        </mxCell>
        <mxCell id="JA2z67xEsf-Lq8oUfWYJ-18" value="&lt;div class=&quot;okr-block-clipboard&quot;&gt;&lt;/div&gt;&lt;div&gt;&lt;div class=&quot;okr-block-clipboard&quot;&gt;&lt;/div&gt;&lt;div&gt;runc:[2:INIT]&lt;/div&gt;&lt;/div&gt;tid=&lt;span&gt;48031&lt;br&gt;vtid=2&lt;br&gt;&lt;/span&gt;&lt;div class=&quot;okr-block-clipboard&quot;&gt;&lt;/div&gt;" style="rounded=0;whiteSpace=wrap;html=1;" parent="1" vertex="1">
          <mxGeometry x="-380" y="620" width="120" height="60" as="geometry" />
        </mxCell>
        <mxCell id="JA2z67xEsf-Lq8oUfWYJ-20" value="8. clone" style="text;html=1;strokeColor=none;fillColor=none;align=center;verticalAlign=middle;whiteSpace=wrap;rounded=0;" parent="1" vertex="1">
          <mxGeometry x="-250" y="620" width="60" height="30" as="geometry" />
        </mxCell>
        <mxCell id="JA2z67xEsf-Lq8oUfWYJ-21" value="&lt;div class=&quot;okr-block-clipboard&quot;&gt;&lt;/div&gt;&lt;div&gt;&lt;div class=&quot;okr-block-clipboard&quot;&gt;&lt;/div&gt;&lt;div&gt;runc:[2:INIT]&lt;/div&gt;&lt;/div&gt;tid=&lt;span&gt;48032&lt;br&gt;vtid=3&lt;br&gt;&lt;/span&gt;&lt;div class=&quot;okr-block-clipboard&quot;&gt;&lt;/div&gt;" style="rounded=0;whiteSpace=wrap;html=1;" parent="1" vertex="1">
          <mxGeometry x="-380" y="700" width="120" height="60" as="geometry" />
        </mxCell>
        <mxCell id="JA2z67xEsf-Lq8oUfWYJ-22" value="&lt;div class=&quot;okr-block-clipboard&quot;&gt;&lt;/div&gt;&lt;div&gt;&lt;div class=&quot;okr-block-clipboard&quot;&gt;&lt;/div&gt;&lt;div&gt;&lt;/div&gt;&lt;/div&gt;&lt;span&gt;...&lt;br&gt;&lt;/span&gt;&lt;div class=&quot;okr-block-clipboard&quot;&gt;&lt;/div&gt;" style="rounded=0;whiteSpace=wrap;html=1;" parent="1" vertex="1">
          <mxGeometry x="-380" y="780" width="120" height="60" as="geometry" />
        </mxCell>
        <mxCell id="JA2z67xEsf-Lq8oUfWYJ-25" value="&lt;div class=&quot;okr-block-clipboard&quot;&gt;&lt;/div&gt;&lt;div&gt;&lt;div class=&quot;okr-block-clipboard&quot;&gt;&lt;/div&gt;&lt;div&gt;runc:[2:INIT]&lt;/div&gt;&lt;/div&gt;tid=&lt;span&gt;48036&lt;br&gt;vtid=7&lt;br&gt;&lt;/span&gt;&lt;div class=&quot;okr-block-clipboard&quot;&gt;&lt;/div&gt;" style="rounded=0;whiteSpace=wrap;html=1;" parent="1" vertex="1">
          <mxGeometry x="-380" y="870" width="120" height="60" as="geometry" />
        </mxCell>
        <mxCell id="JA2z67xEsf-Lq8oUfWYJ-28" style="edgeStyle=orthogonalEdgeStyle;rounded=0;orthogonalLoop=1;jettySize=auto;html=1;exitX=1;exitY=0.5;exitDx=0;exitDy=0;entryX=0;entryY=0.5;entryDx=0;entryDy=0;" parent="1" source="JA2z67xEsf-Lq8oUfWYJ-26" target="JA2z67xEsf-Lq8oUfWYJ-27" edge="1">
          <mxGeometry relative="1" as="geometry" />
        </mxCell>
        <mxCell id="JA2z67xEsf-Lq8oUfWYJ-26" value="&lt;div class=&quot;okr-block-clipboard&quot;&gt;&lt;/div&gt;&lt;div&gt;&lt;div class=&quot;okr-block-clipboard&quot;&gt;&lt;/div&gt;&lt;div&gt;runc:[2:INIT]&lt;/div&gt;&lt;/div&gt;tid=&lt;span&gt;48037&lt;br&gt;&lt;/span&gt;&lt;div class=&quot;okr-block-clipboard&quot;&gt;&lt;/div&gt;" style="rounded=0;whiteSpace=wrap;html=1;" parent="1" vertex="1">
          <mxGeometry x="-600" y="970" width="120" height="60" as="geometry" />
        </mxCell>
        <mxCell id="JA2z67xEsf-Lq8oUfWYJ-27" value="&lt;div&gt;runc&lt;/div&gt;tid=48037&lt;br&gt;dockerd libnetwork-setkey" style="rounded=0;whiteSpace=wrap;html=1;" parent="1" vertex="1">
          <mxGeometry x="-420" y="970" width="120" height="60" as="geometry" />
        </mxCell>
        <mxCell id="JA2z67xEsf-Lq8oUfWYJ-29" value="9. exec" style="text;html=1;strokeColor=none;fillColor=none;align=center;verticalAlign=middle;whiteSpace=wrap;rounded=0;" parent="1" vertex="1">
          <mxGeometry x="-480" y="970" width="60" height="30" as="geometry" />
        </mxCell>
        <mxCell id="JA2z67xEsf-Lq8oUfWYJ-32" style="edgeStyle=orthogonalEdgeStyle;rounded=0;orthogonalLoop=1;jettySize=auto;html=1;exitX=1;exitY=0.5;exitDx=0;exitDy=0;entryX=0;entryY=0.5;entryDx=0;entryDy=0;" parent="1" source="JA2z67xEsf-Lq8oUfWYJ-31" target="JA2z67xEsf-Lq8oUfWYJ-26" edge="1">
          <mxGeometry relative="1" as="geometry" />
        </mxCell>
        <mxCell id="JA2z67xEsf-Lq8oUfWYJ-31" value="&lt;div class=&quot;okr-block-clipboard&quot;&gt;&lt;/div&gt;&lt;div&gt;&lt;div class=&quot;okr-block-clipboard&quot;&gt;&lt;/div&gt;&lt;div&gt;runc&lt;/div&gt;&lt;/div&gt;tid=&lt;span&gt;48018&lt;br&gt;&lt;/span&gt;&lt;div class=&quot;okr-block-clipboard&quot;&gt;&lt;/div&gt;" style="rounded=0;whiteSpace=wrap;html=1;" parent="1" vertex="1">
          <mxGeometry x="-790" y="970" width="120" height="60" as="geometry" />
        </mxCell>
        <mxCell id="JA2z67xEsf-Lq8oUfWYJ-33" value="8. fork" style="text;html=1;strokeColor=none;fillColor=none;align=center;verticalAlign=middle;whiteSpace=wrap;rounded=0;" parent="1" vertex="1">
          <mxGeometry x="-670" y="970" width="60" height="30" as="geometry" />
        </mxCell>
        <mxCell id="JA2z67xEsf-Lq8oUfWYJ-34" value="/usr/bin/bash" style="rounded=0;whiteSpace=wrap;html=1;" parent="1" vertex="1">
          <mxGeometry x="-180" y="740" width="120" height="60" as="geometry" />
        </mxCell>
        <mxCell id="JA2z67xEsf-Lq8oUfWYJ-36" value="exec" style="text;html=1;strokeColor=none;fillColor=none;align=center;verticalAlign=middle;whiteSpace=wrap;rounded=0;" parent="1" vertex="1">
          <mxGeometry x="-120" y="700" width="60" height="30" as="geometry" />
        </mxCell>
        <mxCell id="JA2z67xEsf-Lq8oUfWYJ-38" style="edgeStyle=orthogonalEdgeStyle;rounded=0;orthogonalLoop=1;jettySize=auto;html=1;exitX=1;exitY=0.5;exitDx=0;exitDy=0;entryX=0;entryY=0.5;entryDx=0;entryDy=0;" parent="1" source="JA2z67xEsf-Lq8oUfWYJ-37" target="JA2z67xEsf-Lq8oUfWYJ-31" edge="1">
          <mxGeometry relative="1" as="geometry" />
        </mxCell>
        <mxCell id="JA2z67xEsf-Lq8oUfWYJ-40" style="edgeStyle=orthogonalEdgeStyle;rounded=0;orthogonalLoop=1;jettySize=auto;html=1;exitX=0.5;exitY=0;exitDx=0;exitDy=0;entryX=0.5;entryY=1;entryDx=0;entryDy=0;" parent="1" source="JA2z67xEsf-Lq8oUfWYJ-37" target="JA2z67xEsf-Lq8oUfWYJ-8" edge="1">
          <mxGeometry relative="1" as="geometry" />
        </mxCell>
        <mxCell id="tgb30LYWHz61ro44UjXS-9" style="edgeStyle=orthogonalEdgeStyle;rounded=0;orthogonalLoop=1;jettySize=auto;html=1;exitX=1;exitY=0.5;exitDx=0;exitDy=0;entryX=0;entryY=0.5;entryDx=0;entryDy=0;" edge="1" parent="1" source="JA2z67xEsf-Lq8oUfWYJ-37" target="tgb30LYWHz61ro44UjXS-3">
          <mxGeometry relative="1" as="geometry" />
        </mxCell>
        <mxCell id="tgb30LYWHz61ro44UjXS-12" style="edgeStyle=orthogonalEdgeStyle;rounded=0;orthogonalLoop=1;jettySize=auto;html=1;exitX=1;exitY=0.5;exitDx=0;exitDy=0;entryX=0;entryY=0.5;entryDx=0;entryDy=0;" edge="1" parent="1" source="JA2z67xEsf-Lq8oUfWYJ-37" target="tgb30LYWHz61ro44UjXS-2">
          <mxGeometry relative="1" as="geometry" />
        </mxCell>
        <mxCell id="JA2z67xEsf-Lq8oUfWYJ-37" value="&lt;div class=&quot;okr-block-clipboard&quot;&gt;&lt;/div&gt;&lt;div&gt;&lt;div class=&quot;okr-block-clipboard&quot;&gt;&lt;/div&gt;&lt;div&gt;runc&lt;/div&gt;&lt;/div&gt;&lt;div&gt;runc --root ...&lt;/div&gt;tid=&lt;span&gt;48014&lt;br&gt;&lt;/span&gt;&lt;div class=&quot;okr-block-clipboard&quot;&gt;&lt;/div&gt;" style="rounded=0;whiteSpace=wrap;html=1;" parent="1" vertex="1">
          <mxGeometry x="-980" y="970" width="120" height="60" as="geometry" />
        </mxCell>
        <mxCell id="JA2z67xEsf-Lq8oUfWYJ-39" value="1. clone" style="text;html=1;strokeColor=none;fillColor=none;align=center;verticalAlign=middle;whiteSpace=wrap;rounded=0;" parent="1" vertex="1">
          <mxGeometry x="-887" y="930" width="60" height="30" as="geometry" />
        </mxCell>
        <mxCell id="JA2z67xEsf-Lq8oUfWYJ-41" value="2. clone" style="text;html=1;strokeColor=none;fillColor=none;align=center;verticalAlign=middle;whiteSpace=wrap;rounded=0;" parent="1" vertex="1">
          <mxGeometry x="-990" y="850" width="60" height="30" as="geometry" />
        </mxCell>
        <mxCell id="tgb30LYWHz61ro44UjXS-2" value="&lt;div class=&quot;okr-block-clipboard&quot;&gt;&lt;/div&gt;&lt;div&gt;&lt;div class=&quot;okr-block-clipboard&quot;&gt;&lt;/div&gt;&lt;div&gt;runc&lt;/div&gt;&lt;/div&gt;tid=&lt;span&gt;48019&lt;br&gt;&lt;/span&gt;&lt;div class=&quot;okr-block-clipboard&quot;&gt;&lt;/div&gt;" style="rounded=0;whiteSpace=wrap;html=1;" vertex="1" parent="1">
          <mxGeometry x="-790" y="890" width="120" height="60" as="geometry" />
        </mxCell>
        <mxCell id="tgb30LYWHz61ro44UjXS-3" value="&lt;div class=&quot;okr-block-clipboard&quot;&gt;&lt;/div&gt;&lt;div&gt;&lt;div class=&quot;okr-block-clipboard&quot;&gt;&lt;/div&gt;&lt;div&gt;runc&lt;/div&gt;&lt;/div&gt;tid=&lt;span&gt;48017&lt;br&gt;&lt;/span&gt;&lt;div class=&quot;okr-block-clipboard&quot;&gt;&lt;/div&gt;" style="rounded=0;whiteSpace=wrap;html=1;" vertex="1" parent="1">
          <mxGeometry x="-790" y="1050" width="120" height="60" as="geometry" />
        </mxCell>
        <mxCell id="tgb30LYWHz61ro44UjXS-24" style="edgeStyle=orthogonalEdgeStyle;rounded=0;orthogonalLoop=1;jettySize=auto;html=1;exitX=1;exitY=0.5;exitDx=0;exitDy=0;entryX=0;entryY=0.5;entryDx=0;entryDy=0;" edge="1" parent="1" source="tgb30LYWHz61ro44UjXS-14" target="tgb30LYWHz61ro44UjXS-15">
          <mxGeometry relative="1" as="geometry" />
        </mxCell>
        <mxCell id="tgb30LYWHz61ro44UjXS-25" style="edgeStyle=orthogonalEdgeStyle;rounded=0;orthogonalLoop=1;jettySize=auto;html=1;exitX=0.5;exitY=0;exitDx=0;exitDy=0;entryX=0.5;entryY=1;entryDx=0;entryDy=0;" edge="1" parent="1" source="tgb30LYWHz61ro44UjXS-14" target="JA2z67xEsf-Lq8oUfWYJ-37">
          <mxGeometry relative="1" as="geometry" />
        </mxCell>
        <mxCell id="tgb30LYWHz61ro44UjXS-14" value="tid=48009" style="rounded=0;whiteSpace=wrap;html=1;" vertex="1" parent="1">
          <mxGeometry x="-980" y="1210" width="120" height="60" as="geometry" />
        </mxCell>
        <mxCell id="tgb30LYWHz61ro44UjXS-28" style="edgeStyle=orthogonalEdgeStyle;rounded=0;orthogonalLoop=1;jettySize=auto;html=1;exitX=1;exitY=0.5;exitDx=0;exitDy=0;entryX=0;entryY=0.5;entryDx=0;entryDy=0;" edge="1" parent="1" source="tgb30LYWHz61ro44UjXS-15" target="tgb30LYWHz61ro44UjXS-16">
          <mxGeometry relative="1" as="geometry" />
        </mxCell>
        <mxCell id="tgb30LYWHz61ro44UjXS-30" style="edgeStyle=orthogonalEdgeStyle;rounded=0;orthogonalLoop=1;jettySize=auto;html=1;exitX=1;exitY=0.5;exitDx=0;exitDy=0;entryX=0;entryY=0.5;entryDx=0;entryDy=0;" edge="1" parent="1" source="tgb30LYWHz61ro44UjXS-15" target="tgb30LYWHz61ro44UjXS-18">
          <mxGeometry relative="1" as="geometry" />
        </mxCell>
        <mxCell id="tgb30LYWHz61ro44UjXS-32" style="edgeStyle=orthogonalEdgeStyle;rounded=0;orthogonalLoop=1;jettySize=auto;html=1;exitX=1;exitY=0.5;exitDx=0;exitDy=0;entryX=0;entryY=0.5;entryDx=0;entryDy=0;" edge="1" parent="1" source="tgb30LYWHz61ro44UjXS-15" target="tgb30LYWHz61ro44UjXS-19">
          <mxGeometry relative="1" as="geometry" />
        </mxCell>
        <mxCell id="tgb30LYWHz61ro44UjXS-34" style="edgeStyle=orthogonalEdgeStyle;rounded=0;orthogonalLoop=1;jettySize=auto;html=1;exitX=1;exitY=0.5;exitDx=0;exitDy=0;entryX=0;entryY=0.5;entryDx=0;entryDy=0;" edge="1" parent="1" source="tgb30LYWHz61ro44UjXS-15" target="tgb30LYWHz61ro44UjXS-21">
          <mxGeometry relative="1" as="geometry" />
        </mxCell>
        <mxCell id="tgb30LYWHz61ro44UjXS-15" value="runc --root ... &lt;br&gt;--log ... &lt;i&gt;start&lt;/i&gt;&lt;br&gt;&lt;br&gt;tid=48061" style="rounded=0;whiteSpace=wrap;html=1;" vertex="1" parent="1">
          <mxGeometry x="-800" y="1210" width="120" height="60" as="geometry" />
        </mxCell>
        <mxCell id="tgb30LYWHz61ro44UjXS-16" value="runc&lt;br&gt;tid=48066" style="rounded=0;whiteSpace=wrap;html=1;" vertex="1" parent="1">
          <mxGeometry x="-590" y="1210" width="120" height="60" as="geometry" />
        </mxCell>
        <mxCell id="tgb30LYWHz61ro44UjXS-31" style="edgeStyle=orthogonalEdgeStyle;rounded=0;orthogonalLoop=1;jettySize=auto;html=1;exitX=1;exitY=0.5;exitDx=0;exitDy=0;entryX=0;entryY=0.5;entryDx=0;entryDy=0;" edge="1" parent="1" source="tgb30LYWHz61ro44UjXS-18" target="tgb30LYWHz61ro44UjXS-20">
          <mxGeometry relative="1" as="geometry" />
        </mxCell>
        <mxCell id="tgb30LYWHz61ro44UjXS-18" value="runc&lt;br&gt;tid=48067" style="rounded=0;whiteSpace=wrap;html=1;" vertex="1" parent="1">
          <mxGeometry x="-590" y="1290" width="120" height="60" as="geometry" />
        </mxCell>
        <mxCell id="tgb30LYWHz61ro44UjXS-33" style="edgeStyle=orthogonalEdgeStyle;rounded=0;orthogonalLoop=1;jettySize=auto;html=1;exitX=1;exitY=0.5;exitDx=0;exitDy=0;entryX=0;entryY=0.5;entryDx=0;entryDy=0;" edge="1" parent="1" source="tgb30LYWHz61ro44UjXS-19" target="tgb30LYWHz61ro44UjXS-23">
          <mxGeometry relative="1" as="geometry" />
        </mxCell>
        <mxCell id="tgb30LYWHz61ro44UjXS-19" value="runc&lt;br&gt;tid=48068" style="rounded=0;whiteSpace=wrap;html=1;" vertex="1" parent="1">
          <mxGeometry x="-590" y="1380" width="120" height="60" as="geometry" />
        </mxCell>
        <mxCell id="tgb30LYWHz61ro44UjXS-20" value="runc&lt;br&gt;tid=48069" style="rounded=0;whiteSpace=wrap;html=1;" vertex="1" parent="1">
          <mxGeometry x="-420" y="1290" width="120" height="60" as="geometry" />
        </mxCell>
        <mxCell id="tgb30LYWHz61ro44UjXS-21" value="..." style="rounded=0;whiteSpace=wrap;html=1;" vertex="1" parent="1">
          <mxGeometry x="-590" y="1470" width="120" height="60" as="geometry" />
        </mxCell>
        <mxCell id="tgb30LYWHz61ro44UjXS-23" value="runc&lt;br&gt;tid=48073" style="rounded=0;whiteSpace=wrap;html=1;" vertex="1" parent="1">
          <mxGeometry x="-420" y="1380" width="120" height="60" as="geometry" />
        </mxCell>
        <mxCell id="tgb30LYWHz61ro44UjXS-26" value="parent" style="text;html=1;strokeColor=none;fillColor=none;align=center;verticalAlign=middle;whiteSpace=wrap;rounded=0;" vertex="1" parent="1">
          <mxGeometry x="-980" y="1120" width="60" height="30" as="geometry" />
        </mxCell>
        <mxCell id="tgb30LYWHz61ro44UjXS-27" value="parent" style="text;html=1;strokeColor=none;fillColor=none;align=center;verticalAlign=middle;whiteSpace=wrap;rounded=0;" vertex="1" parent="1">
          <mxGeometry x="-860" y="1210" width="60" height="30" as="geometry" />
        </mxCell>
        <mxCell id="tgb30LYWHz61ro44UjXS-29" value="11. clone" style="text;html=1;strokeColor=none;fillColor=none;align=center;verticalAlign=middle;whiteSpace=wrap;rounded=0;" vertex="1" parent="1">
          <mxGeometry x="-670" y="1210" width="60" height="30" as="geometry" />
        </mxCell>
      </root>
    </mxGraphModel>
  </diagram>
</mxfile>
